<?xml version="1.0" standalone="no"?>
<!DOCTYPE svg PUBLIC "-//W3C//DTD SVG 20010904//EN"
 "http://www.w3.org/TR/2001/REC-SVG-20010904/DTD/svg10.dtd">
<svg version="1.0" xmlns="http://www.w3.org/2000/svg"
 width="2362.000000pt" height="2362.000000pt" viewBox="0 0 2362.000000 2362.000000"
 preserveAspectRatio="xMidYMid meet">

<g transform="translate(0.000000,2362.000000) scale(0.100000,-0.100000)"
fill="#000000" stroke="none">
<path d="M7870 16504 c-19 -2 -98 -8 -175 -14 -1017 -77 -1809 -438 -2172
-988 -508 -773 -269 -1834 679 -3007 174 -216 200 -238 95 -80 -268 401 -446
778 -530 1125 -129 527 -48 1008 232 1380 301 401 797 670 1488 805 505 100
1137 117 1793 49 2006 -206 4361 -1176 6064 -2497 1230 -955 2023 -2000 2206
-2906 78 -393 39 -764 -114 -1068 -224 -447 -661 -767 -1295 -949 -232 -67
-491 -115 -791 -147 -84 -9 300 -6 445 3 766 50 1370 224 1815 521 610 407
857 1033 705 1785 -208 1033 -1177 2250 -2652 3330 -1843 1351 -4264 2341
-6353 2598 -392 48 -544 58 -985 61 -231 2 -436 1 -455 -1z"/>
<path d="M8350 15393 c-431 -13 -856 -88 -1178 -207 -488 -181 -811 -456 -976
-833 -42 -97 -88 -253 -101 -343 -3 -25 -9 -58 -12 -75 l-5 -30 21 19 c12 11
19 21 17 23 -2 3 35 45 82 95 376 394 966 632 1792 724 195 21 770 30 1011 15
540 -34 1094 -122 1654 -262 629 -157 1309 -393 1873 -650 35 -16 66 -29 69
-29 13 0 622 -306 748 -375 380 -211 831 -499 1114 -711 47 -36 108 -82 135
-102 332 -250 818 -710 1034 -978 22 -27 65 -80 97 -119 335 -416 574 -897
652 -1315 25 -136 25 -452 0 -569 -76 -354 -254 -634 -552 -867 -320 -250
-817 -440 -1347 -516 -48 -6 -86 -13 -84 -15 4 -4 279 15 396 27 651 71 1173
236 1565 496 61 40 129 90 153 112 23 21 42 37 42 35 0 -2 37 31 81 74 161
155 312 392 379 595 64 198 86 467 56 693 -37 285 -154 619 -312 896 -20 35
-48 84 -62 109 -37 67 -176 273 -245 365 -179 238 -325 405 -576 655 -337 335
-590 548 -1086 910 -27 20 -149 102 -270 182 -1587 1050 -3607 1779 -5385
1943 -173 16 -573 36 -650 33 -25 -1 -83 -3 -130 -5z"/>
<path d="M7630 13577 c-61 -21 -54 -84 12 -112 176 -73 210 -95 334 -219 181
-182 251 -284 779 -1146 533 -870 612 -1015 661 -1209 40 -158 47 -298 40
-861 -7 -661 -18 -777 -82 -887 -35 -61 -72 -82 -182 -105 -106 -21 -124 -31
-120 -62 5 -36 67 -58 166 -58 48 0 370 1 715 2 685 2 709 3 715 52 4 35 -27
51 -136 72 -45 9 -99 25 -121 35 -85 44 -135 137 -153 286 -5 38 -11 361 -14
716 -8 846 -4 876 160 1194 136 264 503 892 769 1315 396 631 537 782 808 864
109 33 145 65 120 104 -16 26 -85 30 -330 21 -135 -5 -372 -6 -526 -2 -242 5
-285 4 -317 -10 -54 -23 -52 -53 8 -103 65 -52 88 -107 79 -187 -18 -163 -71
-271 -556 -1143 -177 -318 -352 -636 -389 -707 l-67 -128 -21 33 c-159 262
-946 1649 -1020 1796 -62 125 -77 163 -80 210 -4 51 -1 62 22 89 15 18 42 41
60 53 60 37 57 73 -8 91 -27 8 -112 11 -256 8 -258 -5 -772 -2 -925 5 -74 4
-122 1 -145 -7z"/>
<path d="M12746 11949 c-408 -36 -780 -212 -984 -463 -172 -214 -245 -425
-245 -711 0 -289 76 -530 250 -788 159 -237 351 -423 793 -771 442 -348 567
-479 675 -709 53 -114 76 -210 82 -352 6 -134 -10 -214 -67 -330 -104 -213
-299 -355 -560 -406 -36 -7 -130 -13 -210 -13 -272 1 -469 72 -643 233 -132
122 -217 297 -267 549 -11 57 -26 112 -32 122 -18 28 -57 34 -80 13 -44 -40
-53 -108 -68 -549 -12 -339 -7 -418 27 -457 46 -51 310 -144 508 -177 269 -46
680 -44 921 5 671 136 1095 601 1121 1230 12 288 -36 509 -162 750 -157 302
-403 554 -915 939 -252 190 -377 295 -496 417 -196 203 -264 345 -264 553 0
171 50 304 158 417 148 157 360 229 636 216 151 -7 224 -25 351 -87 173 -85
291 -214 379 -417 26 -61 60 -126 76 -144 26 -32 30 -33 45 -18 30 30 44 138
61 472 20 387 31 352 -116 392 -280 74 -684 109 -974 84z"/>
</g>
</svg>
